<svg viewBox="0 0 1300 980" xmlns="http://www.w3.org/2000/svg" font-family="Segoe UI, Arial, sans-serif">
  <rect x="0" y="0" width="1300" height="980" fill="#ffffff"/>
  <style>
    .lab{font-family:Consolas,monospace;font-size:9.5px;fill:#9a988f}
    .labU{font-family:Consolas,monospace;font-size:9.5px;font-weight:700;fill:#f1efe8}
    .ct{font-size:11px;font-weight:700;fill:#1b1b1b}
    .cs{font-size:9px;fill:#444}
    .rl{font-size:10px;font-weight:700}
    .leg{font-size:10.5px;fill:#5a5a5a}
    .t1{font-size:18px;font-weight:700;fill:#1b1b1b}
    .t2{font-size:11.5px;fill:#5a5a5a}
    .w{stroke-width:2;fill:none}
    .chip{font-size:7.5px;font-weight:700;fill:#854F0B}
  </style>

  <text x="20" y="30" class="t1">Umweltmonitor — Komplett-Anschlussschema (ESP32-D · DevKitC 38-Pin)</text>
  <text x="20" y="50" class="t2">Station + Umwelt · Variante A (nativ) · 2 I²C-Busse · alle Sensoren, Servo, Power-Gate, Pull-ups</text>

  <!-- ===== POWER RAILS ===== -->
  <!-- left rails: 5V x20, 3V3 x44, GND x68 -->
  <line class="w" stroke="#C77F0A" x1="20" y1="300" x2="20" y2="770"/>
  <text x="14" y="295" class="rl" fill="#C77F0A">5V</text>
  <line class="w" stroke="#D85A30" x1="44" y1="138" x2="44" y2="770"/>
  <text x="38" y="132" class="rl" fill="#D85A30">3V3</text>
  <line class="w" stroke="#5F5E5A" x1="68" y1="168" x2="68" y2="912"/>
  <text x="62" y="930" class="rl" fill="#5F5E5A">GND</text>
  <!-- right rails: GND x1232, 3V3 x1256 -->
  <line class="w" stroke="#5F5E5A" x1="1232" y1="168" x2="1232" y2="912"/>
  <text x="1216" y="930" class="rl" fill="#5F5E5A">GND</text>
  <line class="w" stroke="#D85A30" x1="1256" y1="138" x2="1256" y2="610"/>
  <text x="1250" y="132" class="rl" fill="#D85A30">3V3</text>
  <!-- ties -->
  <line class="w" stroke="#D85A30" x1="44" y1="138" x2="1256" y2="138"/>
  <line class="w" stroke="#5F5E5A" x1="68" y1="912" x2="1232" y2="912"/>
  <!-- gated 3V3 rail (switched by MOSFET) -->
  <line class="w" stroke="#D85A30" stroke-dasharray="5 3" x1="104" y1="258" x2="104" y2="500"/>
  <text x="108" y="256" class="cs" fill="#D85A30">3V3 (gated)</text>

  <!-- ===== ESP32 BOARD ===== -->
  <rect x="575" y="152" width="140" height="624" rx="10" fill="#2c2c2a"/>
  <rect x="625" y="144" width="40" height="9" rx="3" fill="#5f5e5a"/>
  <text x="645" y="792" text-anchor="middle" class="cs" fill="#888780">ESP32-D · WROOM-32E-N4 · USB unten</text>

  <!-- LEFT pins y=168+32*i -->
  <!-- 0 3V3 -->
  <rect x="567" y="164" width="8" height="8" fill="#D85A30"/><text x="581" y="171" class="labU">3V3</text>
  <line class="w" stroke="#D85A30" x1="567" y1="168" x2="44" y2="168"/><circle cx="44" cy="168" r="3" fill="#D85A30"/>
  <!-- 1 EN -->
  <rect x="567" y="196" width="8" height="8" fill="#6b6a64"/><text x="581" y="203" class="lab">EN</text>
  <!-- 2 IO36 -->
  <rect x="567" y="228" width="8" height="8" fill="#1D9E75"/><text x="581" y="235" class="labU">IO36</text>
  <line class="w" stroke="#1D9E75" x1="360" y1="232" x2="567" y2="232"/>
  <!-- 3 IO39 -->
  <rect x="567" y="260" width="8" height="8" fill="#1D9E75"/><text x="581" y="267" class="labU">IO39</text>
  <line class="w" stroke="#1D9E75" x1="360" y1="264" x2="567" y2="264"/>
  <!-- 4 IO34 -->
  <rect x="567" y="292" width="8" height="8" fill="#1D9E75"/><text x="581" y="299" class="labU">IO34</text>
  <line class="w" stroke="#1D9E75" x1="360" y1="296" x2="567" y2="296"/>
  <!-- 5 IO35 -->
  <rect x="567" y="324" width="8" height="8" fill="#1D9E75"/><text x="581" y="331" class="labU">IO35</text>
  <line class="w" stroke="#1D9E75" x1="360" y1="328" x2="567" y2="328"/>
  <!-- 6 IO32 -->
  <rect x="567" y="356" width="8" height="8" fill="#1D9E75"/><text x="581" y="363" class="labU">IO32</text>
  <line class="w" stroke="#1D9E75" x1="360" y1="360" x2="567" y2="360"/>
  <!-- 7 IO33 -->
  <rect x="567" y="388" width="8" height="8" fill="#6b6a64"/><text x="581" y="395" class="lab">IO33</text>
  <!-- 8 IO25 -->
  <rect x="567" y="420" width="8" height="8" fill="#6b6a64"/><text x="581" y="427" class="lab">IO25</text>
  <!-- 9 IO26 -->
  <rect x="567" y="452" width="8" height="8" fill="#EF9F27"/><text x="581" y="459" class="labU">IO26</text>
  <polyline class="w" stroke="#EF9F27" points="360,456 470,456 470,343 360,343"/>
  <!-- 10 IO27 -->
  <rect x="567" y="484" width="8" height="8" fill="#EF9F27"/><text x="581" y="491" class="labU">IO27</text>
  <line class="w" stroke="#EF9F27" x1="360" y1="488" x2="567" y2="488"/>
  <!-- 11 IO14 -->
  <rect x="567" y="516" width="8" height="8" fill="#EF9F27"/><text x="581" y="523" class="labU">IO14</text>
  <line class="w" stroke="#EF9F27" x1="360" y1="520" x2="567" y2="520"/>
  <!-- 12 IO12 -->
  <rect x="567" y="548" width="8" height="8" fill="#6b6a64"/><text x="581" y="555" class="lab">IO12 s</text>
  <!-- 13 GND -->
  <rect x="567" y="580" width="8" height="8" fill="#5F5E5A"/><text x="581" y="587" class="labU">GND</text>
  <line class="w" stroke="#5F5E5A" x1="567" y1="584" x2="68" y2="584"/><circle cx="68" cy="584" r="3" fill="#5F5E5A"/>
  <!-- 14 IO13 -->
  <rect x="567" y="612" width="8" height="8" fill="#D4537E"/><text x="581" y="619" class="labU">IO13</text>
  <line class="w" stroke="#D4537E" x1="360" y1="616" x2="567" y2="616"/>
  <!-- 15 IO9 -->
  <rect x="567" y="644" width="8" height="8" fill="#6b6a64"/><text x="581" y="651" class="lab">IO9 f</text>
  <!-- 16 IO10 -->
  <rect x="567" y="676" width="8" height="8" fill="#6b6a64"/><text x="581" y="683" class="lab">IO10 f</text>
  <!-- 17 IO11 -->
  <rect x="567" y="708" width="8" height="8" fill="#6b6a64"/><text x="581" y="715" class="lab">IO11 f</text>
  <!-- 18 5V -->
  <rect x="567" y="740" width="8" height="8" fill="#C77F0A"/><text x="581" y="747" class="labU">5V</text>
  <line class="w" stroke="#C77F0A" x1="567" y1="744" x2="20" y2="744"/><circle cx="20" cy="744" r="3" fill="#C77F0A"/>

  <!-- RIGHT pins -->
  <rect x="715" y="164" width="8" height="8" fill="#5F5E5A"/><text x="709" y="171" text-anchor="end" class="labU">GND</text>
  <line class="w" stroke="#5F5E5A" x1="723" y1="168" x2="1232" y2="168"/><circle cx="1232" cy="168" r="3" fill="#5F5E5A"/>
  <rect x="715" y="196" width="8" height="8" fill="#6b6a64"/><text x="709" y="203" text-anchor="end" class="lab">IO23</text>
  <rect x="715" y="228" width="8" height="8" fill="#378ADD"/><text x="709" y="235" text-anchor="end" class="labU">IO22</text>
  <line class="w" stroke="#378ADD" x1="723" y1="232" x2="940" y2="250"/>
  <rect x="715" y="260" width="8" height="8" fill="#6b6a64"/><text x="709" y="267" text-anchor="end" class="lab">TX0</text>
  <rect x="715" y="292" width="8" height="8" fill="#6b6a64"/><text x="709" y="299" text-anchor="end" class="lab">RX0</text>
  <rect x="715" y="324" width="8" height="8" fill="#378ADD"/><text x="709" y="331" text-anchor="end" class="labU">IO21</text>
  <line class="w" stroke="#378ADD" x1="723" y1="328" x2="940" y2="306"/>
  <rect x="715" y="356" width="8" height="8" fill="#5F5E5A"/><text x="709" y="363" text-anchor="end" class="labU">GND</text>
  <line class="w" stroke="#5F5E5A" x1="723" y1="360" x2="1232" y2="360"/><circle cx="1232" cy="360" r="3" fill="#5F5E5A"/>
  <rect x="715" y="388" width="8" height="8" fill="#6b6a64"/><text x="709" y="395" text-anchor="end" class="lab">IO19</text>
  <rect x="715" y="420" width="8" height="8" fill="#6b6a64"/><text x="709" y="427" text-anchor="end" class="lab">IO18</text>
  <rect x="715" y="452" width="8" height="8" fill="#6b6a64"/><text x="709" y="459" text-anchor="end" class="lab">IO5 s</text>
  <rect x="715" y="484" width="8" height="8" fill="#378ADD"/><text x="709" y="491" text-anchor="end" class="labU">IO17</text>
  <line class="w" stroke="#378ADD" x1="723" y1="488" x2="940" y2="496"/>
  <rect x="715" y="516" width="8" height="8" fill="#378ADD"/><text x="709" y="523" text-anchor="end" class="labU">IO16</text>
  <line class="w" stroke="#378ADD" x1="723" y1="520" x2="940" y2="514"/>
  <rect x="715" y="548" width="8" height="8" fill="#EF9F27"/><text x="709" y="555" text-anchor="end" class="labU">IO4</text>
  <line class="w" stroke="#EF9F27" stroke-dasharray="5 3" x1="723" y1="552" x2="940" y2="560"/>
  <rect x="715" y="580" width="8" height="8" fill="#6b6a64"/><text x="709" y="587" text-anchor="end" class="lab">IO0 s</text>
  <rect x="715" y="612" width="8" height="8" fill="#6b6a64"/><text x="709" y="619" text-anchor="end" class="lab">IO2 s</text>
  <rect x="715" y="644" width="8" height="8" fill="#6b6a64"/><text x="709" y="651" text-anchor="end" class="lab">IO15 s</text>
  <rect x="715" y="676" width="8" height="8" fill="#6b6a64"/><text x="709" y="683" text-anchor="end" class="lab">IO8 f</text>
  <rect x="715" y="708" width="8" height="8" fill="#6b6a64"/><text x="709" y="715" text-anchor="end" class="lab">IO7 f</text>
  <rect x="715" y="740" width="8" height="8" fill="#6b6a64"/><text x="709" y="747" text-anchor="end" class="lab">IO6 f</text>

  <!-- ===== LEFT COMPONENTS ===== -->
  <!-- power taps helper: VCC->3V3(44), GND->GND(68) -->
  <!-- A HW-390 @232 -->
  <line class="w" stroke="#D85A30" x1="44" y1="226" x2="130" y2="226"/>
  <line class="w" stroke="#5F5E5A" x1="68" y1="238" x2="130" y2="238"/>
  <rect x="130" y="218" width="230" height="30" rx="5" fill="#E1F5EE" stroke="#1D9E75"/>
  <text x="138" y="231" class="ct">HW-390</text><text x="138" y="243" class="cs">Bodenfeuchte · AOUT→IO36</text>
  <!-- B HW-038 @264 (gated VCC) -->
  <line class="w" stroke="#D85A30" stroke-dasharray="5 3" x1="104" y1="260" x2="130" y2="260"/>
  <line class="w" stroke="#5F5E5A" x1="68" y1="272" x2="130" y2="272"/>
  <rect x="130" y="250" width="230" height="30" rx="5" fill="#E1F5EE" stroke="#1D9E75"/>
  <text x="138" y="263" class="ct">HW-038</text><text x="138" y="275" class="cs">Wasserstand · S→IO39 · VCC gated</text>
  <!-- C MAX9814 @296 -->
  <line class="w" stroke="#D85A30" x1="44" y1="290" x2="130" y2="290"/>
  <line class="w" stroke="#5F5E5A" x1="68" y1="302" x2="130" y2="302"/>
  <rect x="130" y="282" width="230" height="30" rx="5" fill="#E1F5EE" stroke="#1D9E75"/>
  <text x="138" y="295" class="ct">MAX9814</text><text x="138" y="307" class="cs">Schall · OUT→IO34</text>
  <!-- D MiCS-5524 @328 -->
  <line class="w" stroke="#C77F0A" x1="20" y1="322" x2="130" y2="322"/>
  <line class="w" stroke="#5F5E5A" x1="68" y1="334" x2="130" y2="334"/>
  <rect x="130" y="314" width="230" height="30" rx="5" fill="#E1F5EE" stroke="#1D9E75"/>
  <text x="138" y="327" class="ct">MiCS-5524</text><text x="138" y="339" class="cs">Gas · AOUT→IO35 · Heizer 5V/Gate IO26</text>
  <!-- E GUVA @360 -->
  <line class="w" stroke="#D85A30" x1="44" y1="354" x2="130" y2="354"/>
  <line class="w" stroke="#5F5E5A" x1="68" y1="366" x2="130" y2="366"/>
  <rect x="130" y="346" width="230" height="30" rx="5" fill="#E1F5EE" stroke="#1D9E75"/>
  <text x="138" y="359" class="ct">GUVA-S12SD</text><text x="138" y="371" class="cs">UV · AOUT→IO32</text>
  <!-- F Raindrop @488 (gated) -->
  <line class="w" stroke="#D85A30" stroke-dasharray="5 3" x1="104" y1="482" x2="130" y2="482"/>
  <line class="w" stroke="#5F5E5A" x1="68" y1="494" x2="130" y2="494"/>
  <rect x="130" y="474" width="230" height="30" rx="5" fill="#FAEEDA" stroke="#EF9F27"/>
  <text x="138" y="487" class="ct">Raindrop</text><text x="138" y="499" class="cs">Regen · DO→IO27 · VCC gated</text>
  <!-- G Power-Gate MOSFET @520 -->
  <line class="w" stroke="#D85A30" x1="44" y1="528" x2="130" y2="528"/>
  <polyline class="w" stroke="#D85A30" stroke-dasharray="5 3" points="130,512 104,512 104,500"/>
  <rect x="130" y="506" width="230" height="30" rx="5" fill="#FAEEDA" stroke="#EF9F27"/>
  <text x="138" y="519" class="ct">Power-Gate (N-MOSFET)</text><text x="138" y="531" class="cs">Gate←IO14 · schaltet HW-038 + Raindrop</text>
  <!-- H Servo @616 -->
  <line class="w" stroke="#C77F0A" x1="20" y1="610" x2="130" y2="610"/>
  <line class="w" stroke="#5F5E5A" x1="68" y1="622" x2="130" y2="622"/>
  <rect x="130" y="602" width="230" height="30" rx="5" fill="#FBEAF0" stroke="#D4537E"/>
  <text x="138" y="615" class="ct">Servo SG90</text><text x="138" y="627" class="cs">PWM←IO13 · +5V (+Elko)</text>

  <!-- ===== RIGHT COMPONENTS ===== -->
  <!-- I I2C-0 group @222..342 -->
  <line class="w" stroke="#D85A30" x1="1256" y1="240" x2="1190" y2="240"/>
  <line class="w" stroke="#5F5E5A" x1="1232" y1="330" x2="1190" y2="330"/>
  <rect x="940" y="222" width="250" height="120" rx="6" fill="#E6F1FB" stroke="#378ADD"/>
  <text x="950" y="240" class="ct">I²C-Bus 0  (SDA IO21 / SCL IO22)</text>
  <text x="950" y="258" class="cs">AHT20  0x38  — Temp/Feuchte</text>
  <text x="950" y="274" class="cs">BMP280 0x76  — Luftdruck</text>
  <text x="950" y="290" class="cs">TCS34725 0x29 — Farbe</text>
  <text x="950" y="306" class="cs">LCD 0x27 — Display (optional)</text>
  <text x="950" y="326" class="cs" fill="#185FA5">Pull-ups 2×4k7 → 3V3 · VCC/GND → Rails</text>
  <!-- J TSL2591 @470..532 -->
  <line class="w" stroke="#D85A30" x1="1256" y1="484" x2="1190" y2="484"/>
  <line class="w" stroke="#5F5E5A" x1="1232" y1="520" x2="1190" y2="520"/>
  <rect x="940" y="470" width="250" height="62" rx="6" fill="#E6F1FB" stroke="#378ADD"/>
  <text x="950" y="488" class="ct">TSL2591  (I²C-Bus 1)</text>
  <text x="950" y="504" class="cs">Lux 0x29 · SDA IO16 / SCL IO17</text>
  <text x="950" y="520" class="cs" fill="#185FA5">Pull-ups 2×4k7 → 3V3 · eigener Bus (0x29)</text>
  <!-- K DS18B20 @540..580 -->
  <line class="w" stroke="#D85A30" x1="1256" y1="548" x2="1190" y2="548"/>
  <line class="w" stroke="#5F5E5A" x1="1232" y1="572" x2="1190" y2="572"/>
  <rect x="940" y="540" width="250" height="40" rx="6" fill="#FAEEDA" stroke="#854F0B" stroke-dasharray="5 3"/>
  <text x="950" y="556" class="ct">DS18B20 — Bodentemp · DQ→IO4</text>
  <text x="950" y="572" class="cs">4k7 Pull-up DQ→3V3 · wasserdichte Sonde</text>
  <rect x="1118" y="543" width="64" height="14" rx="4" fill="#fff" stroke="#854F0B"/><text x="1150" y="553" text-anchor="middle" class="chip">VORSCHLAG</text>

  <!-- ===== LEGEND ===== -->
  <rect x="20" y="946" width="12" height="12" rx="3" fill="#E1F5EE" stroke="#1D9E75"/><text x="37" y="956" class="leg">Analog</text>
  <rect x="100" y="946" width="12" height="12" rx="3" fill="#E6F1FB" stroke="#378ADD"/><text x="117" y="956" class="leg">I²C</text>
  <rect x="155" y="946" width="12" height="12" rx="3" fill="#FAEEDA" stroke="#EF9F27"/><text x="172" y="956" class="leg">Digital/1-Wire</text>
  <rect x="270" y="946" width="12" height="12" rx="3" fill="#FBEAF0" stroke="#D4537E"/><text x="287" y="956" class="leg">PWM</text>
  <line x1="335" y1="952" x2="357" y2="952" class="w" stroke="#D85A30"/><text x="362" y="956" class="leg">3V3</text>
  <line x1="405" y1="952" x2="427" y2="952" class="w" stroke="#C77F0A"/><text x="432" y="956" class="leg">5V</text>
  <line x1="470" y1="952" x2="492" y2="952" class="w" stroke="#5F5E5A"/><text x="497" y="956" class="leg">GND</text>
  <text x="545" y="956" class="leg" font-style="italic">┄ = gated / Vorschlag · „s"=Strapping frei · „f"=Flash gesperrt (IO6–11)</text>
</svg>
